# xmcd
#
# Track frame offsets:
#	150
#	16228
#	32317
#	48657
#	67012
#	82457
#	94730
#	123053
#	141675
#	158931
#	177116
#	194559
#	211847
#	229320
#	243542
#	256571
#	279341
#	302459
#
# Disc length: 4277 seconds
#
# Revision: 1
# Processed by: cddbd v1.5.2PL0 Copyright (c) Steve Scherf et al.
# Submitted via: audiograbber 1.83.01
#
DISCID=fa10b312
DTITLE=Pam Tillis - Mandolin Rain
DYEAR=2006
DGENRE=Country
TTITLE0=Mi Vida Loca
TTITLE1=Shake The Sugar Tree
TTITLE2=Don't Tell Me What To Do
TTITLE3=Medley: Do You Know Where Your Man Is - Blue Roses
TTITLE4=Cleopatra
TTITLE5=When You Walk In The Room
TTITLE6=Medley: Spilled Perfume - Let That Pony Run - All The Good Ones Are Gon
TTITLE6=e
TTITLE7=Calico Plains
TTITLE8=In Between Dances
TTITLE9=Last Train To Clarkesville
TTITLE10=Mandolin Rain
TTITLE11=Heartache
TTITLE12=Long Drive To Dallas
TTITLE13=Demolition Angel
TTITLE14=I Said A Prayer For You
TTITLE15=Maybe It Was Memphis
TTITLE16=The River And The Highway
TTITLE17=Go Your Own Way
EXTD=
EXTT0=
EXTT1=
EXTT2=
EXTT3=
EXTT4=
EXTT5=
EXTT6=
EXTT7=
EXTT8=
EXTT9=
EXTT10=
EXTT11=
EXTT12=
EXTT13=
EXTT14=
EXTT15=
EXTT16=
EXTT17=
PLAYORDER=
